USFL
nRows=211
nColumns=2
inDegrees=yes
endheader
time	tib_ant_r	
3.69254	 73.209428	
3.72581	 73.215511	
3.75907	 73.225789	
3.79234	 73.214753	
3.8256	 73.234292	
3.85887	 73.225783	
3.89214	 73.228306	
3.9254	 73.238871	
3.95867	 73.224509	
3.99194	 73.236036	
4.0252	 73.253565	
4.05847	 73.244460	
4.09173	 73.254245	
4.125	 73.249518	
4.15827	 73.228136	
4.19153	 73.225076	
4.2248	 73.209216	
4.25806	 73.211732	
4.29133	 73.210541	
4.3246	 73.182111	
4.35786	 73.180047	
4.39113	 73.174745	
4.4244	 73.041928	
4.45766	 73.008140	
4.49093	 73.019149	
4.52419	 72.905129	
4.55746	 72.942552	
4.59073	 72.872544	
4.62399	 72.841957	
4.65726	 72.843310	
4.69052	 72.765429	
4.72379	 72.714745	
4.75706	 72.694022	
4.79032	 72.593918	
4.82359	 72.581696	
4.85685	 72.562899	
4.89012	 72.540321	
4.92339	 72.542677	
4.95665	 72.519587	
4.98992	 72.529354	
5.02319	 72.551420	
5.05645	 72.519839	
5.08972	 72.515801	
5.12298	 72.520505	
5.15625	 72.502742	
5.18952	 72.516374	
5.22278	 72.519387	
5.25605	 72.623308	
5.28931	 72.716007	
5.32258	 72.546255	
5.35585	 72.279137	
5.38911	 72.224289	
5.42238	 72.114320	
5.45565	 72.332121	
5.48891	 72.794779	
5.52218	 72.477982	
5.55544	 71.990251	
5.58871	 71.827440	
5.62198	 72.061432	
5.65524	 71.795827	
5.68851	 71.742007	
5.72177	 72.010657	
5.75504	 72.133298	
5.78831	 71.975792	
5.82157	 71.790120	
5.85484	 71.741743	
5.8881	 71.680517	
5.92137	 71.569468	
5.95464	 71.251919	
5.9879	 70.923442	
6.02117	 70.998375	
6.05444	 70.930570	
6.0877	 70.902303	
6.12097	 70.827809	
6.15423	 70.587030	
6.1875	 70.474632	
6.22077	 70.441540	
6.25403	 70.424730	
6.2873	 70.418699	
6.32056	 70.323626	
6.35383	 70.301870	
6.3871	 70.304884	
6.42036	 70.406710	
6.45363	 70.416213	
6.4869	 70.469791	
6.52016	 70.395337	
6.55343	 70.311824	
6.58669	 70.635789	
6.61996	 70.526336	
6.65323	 70.445161	
6.68649	 70.467472	
6.71976	 70.522767	
6.75302	 70.503517	
6.78629	 70.524994	
6.81956	 70.610268	
6.85282	 70.454043	
6.88609	 70.424451	
6.91935	 70.356527	
6.95262	 70.328124	
6.98589	 70.243491	
7.01915	 70.118811	
7.05242	 70.083232	
7.08569	 70.139944	
7.11895	 70.215160	
7.15222	 70.274824	
7.18548	 70.302830	
7.21875	 70.273596	
7.25202	 70.238464	
7.28528	 70.184581	
7.31855	 70.197996	
7.35181	 70.151384	
7.38508	 70.114997	
7.41835	 70.117413	
7.45161	 70.134384	
7.48488	 70.074972	
7.51815	 70.132665	
7.55141	 70.145113	
7.58468	 70.113232	
7.61794	 70.202787	
7.65121	 70.279440	
7.68448	 70.276715	
7.71774	 70.303593	
7.75101	 70.319275	
7.78427	 70.306157	
7.81754	 70.106041	
7.85081	 70.117156	
7.88407	 70.274306	
7.91734	 70.417294	
7.9506	 70.491680	
7.98387	 70.397447	
8.01714	 70.239494	
8.0504	 70.282339	
8.08367	 70.262028	
8.11694	 70.280363	
8.1502	 70.270570	
8.18347	 70.351132	
8.21673	 70.305923	
8.25	 70.339125	
8.28327	 70.338009	
8.31653	 70.289595	
8.3498	 70.312107	
8.38306	 70.423451	
8.41633	 70.473489	
8.4496	 70.637341	
8.48286	 70.579816	
8.51613	 70.481761	
8.5494	 70.539611	
8.58266	 70.656181	
8.61593	 70.648368	
8.64919	 70.661424	
8.68246	 70.681672	
8.71573	 70.781193	
8.74899	 70.812860	
8.78226	 70.820197	
8.81552	 70.912005	
8.84879	 70.863849	
8.88206	 70.805232	
8.91532	 70.727798	
8.94859	 70.691416	
8.98185	 70.654005	
9.01512	 70.774159	
9.04839	 70.714297	
9.08165	 70.785919	
9.11492	 70.827398	
9.14819	 70.850800	
9.18145	 70.878895	
9.21472	 70.928168	
9.24798	 70.926590	
9.28125	 70.884648	
9.31452	 70.901326	
9.34778	 70.951517	
9.38105	 70.960508	
9.41431	 70.927477	
9.44758	 70.975157	
9.48085	 70.954529	
9.51411	 70.992694	
9.54738	 70.878377	
9.58065	 70.864340	
9.61391	 70.853599	
9.64718	 70.895491	
9.68044	 70.929909	
9.71371	 70.965995	
9.74698	 71.119822	
9.78024	 71.140979	
9.81351	 71.277540	
9.84677	 71.310389	
9.88004	 71.352413	
9.91331	 71.295804	
9.94657	 73.086261	
9.97984	 73.260726	
10.0131	 73.330943	
10.0464	 73.411626	
10.0796	 73.422896	
10.1129	 73.404451	
10.1462	 73.347541	
10.1794	 73.735863	
10.2127	 73.799431	
10.246	 73.788374	
10.2792	 73.879588	
10.3125	 73.932647	
10.3458	 73.370703	
10.379	 73.473487	
10.4123	 73.649189	
10.4456	 73.715777	
10.4788	 73.832164	
10.5121	 74.124795	
10.5454	 74.292322	
10.5786	 74.496548	
10.6119	 74.833089	
10.6452	 75.049670	
10.6784	 75.358002	
